<svg xmlns="http://www.w3.org/2000/svg" xmlns:xlink="http://www.w3.org/1999/xlink" viewBox="0 0 682.1 743.3"><defs><clipPath id="clip-path" transform="translate(69 -0.3)"><circle cx="249.9" cy="250.3" r="250" fill="none"/></clipPath><clipPath id="clip-path-2" transform="translate(69 -0.3)"><rect x="-0.1" y="0.3" width="500" height="500" fill="none"/></clipPath></defs><title>Error</title><g style="isolation:isolate"><g id="Capa_1" data-name="Capa 1"><g clip-path="url(#clip-path)"><rect x="68.9" width="500" height="500" fill="#1c1c1c"/><rect x="68.9" width="500" height="500" opacity="0.09" style="mix-blend-mode:overlay"/><g clip-path="url(#clip-path-2)"><path d="M179.1,265.1H104.5a7.1,7.1,0,0,1-7.1-7.1h0a7.1,7.1,0,0,1,7.1-7.2h74.6a7.2,7.2,0,0,1,7.2,7.2h0A7.1,7.1,0,0,1,179.1,265.1Z" transform="translate(69 -0.3)" fill="#262628"/><path d="M398.1,351.9H323.5a7.1,7.1,0,0,1-7.1-7.1h0a7.1,7.1,0,0,1,7.1-7.2h74.6a7.2,7.2,0,0,1,7.2,7.2h0A7.2,7.2,0,0,1,398.1,351.9Z" transform="translate(69 -0.3)" fill="#262628"/><path d="M384.1,391.9H309.5a7.1,7.1,0,0,1-7.1-7.2h0a7.1,7.1,0,0,1,7.1-7.1h74.6a7.1,7.1,0,0,1,7.2,7.1h0A7.2,7.2,0,0,1,384.1,391.9Z" transform="translate(69 -0.3)" fill="#262628"/><path d="M420.8,372.4H388.2a7.1,7.1,0,0,1-7.1-7.1h0a7.1,7.1,0,0,1,7.1-7.2h32.6a7.2,7.2,0,0,1,7.2,7.2h0A7.1,7.1,0,0,1,420.8,372.4Z" transform="translate(69 -0.3)" fill="#262628"/><path d="M359.4,372.4H347.7a7.1,7.1,0,0,1-7.2-7.1h0a7.2,7.2,0,0,1,7.2-7.2h11.7a7.1,7.1,0,0,1,7.1,7.2h0A7.1,7.1,0,0,1,359.4,372.4Z" transform="translate(69 -0.3)" fill="#262628"/><path d="M142.2,295.2H68.9a12.3,12.3,0,0,1-12.3-12.3h0a12.3,12.3,0,0,1,12.3-12.3h73.3a12.3,12.3,0,0,1,12.3,12.3h0A12.3,12.3,0,0,1,142.2,295.2Z" transform="translate(69 -0.3)" fill="#262628"/><path d="M194.8,62.8a12.3,12.3,0,0,1-12.2,12.3H12.2A12.3,12.3,0,0,1-.1,62.8h0A12.3,12.3,0,0,1,12.2,50.5H182.6a12.3,12.3,0,0,1,12.2,12.3Z" transform="translate(69 -0.3)" fill="#242426"/><path d="M160.5,87.4a12.3,12.3,0,0,1-12.3,12.2H34.2A12.3,12.3,0,0,1,21.9,87.4h0A12.3,12.3,0,0,1,34.2,75.1h114a12.3,12.3,0,0,1,12.3,12.3Z" transform="translate(69 -0.3)" fill="#262628"/><rect x="115.4" y="25.7" width="160.5" height="24.57" rx="12.3" fill="#222223"/><rect x="475.2" y="422.4" width="194.9" height="24.57" rx="12.3" fill="#262628"/><path d="M566.7,459.5a12.3,12.3,0,0,1-12.3,12.3h-114a12.3,12.3,0,0,1-12.3-12.3h0a12.3,12.3,0,0,1,12.3-12.3h114a12.3,12.3,0,0,1,12.3,12.3Z" transform="translate(69 -0.3)" fill="#262628"/><path d="M600.9,422.6h-136a12.3,12.3,0,0,1-12.3-12.3h0A12.3,12.3,0,0,1,464.9,398h136a12.3,12.3,0,0,1,12.2,12.3h0A12.3,12.3,0,0,1,600.9,422.6Z" transform="translate(69 -0.3)" fill="#262628"/><path d="M125.9,389.4a12.3,12.3,0,0,1-12.3,12.3H-56.7A12.3,12.3,0,0,1-69,389.4h0a12.3,12.3,0,0,1,12.3-12.3H113.6a12.3,12.3,0,0,1,12.3,12.3Z" transform="translate(69 -0.3)" fill="#262628"/><path d="M91.5,414a12.3,12.3,0,0,1-12.2,12.3H-34.8A12.3,12.3,0,0,1-47,414h0a12.3,12.3,0,0,1,12.2-12.3H79.3A12.3,12.3,0,0,1,91.5,414Z" transform="translate(69 -0.3)" fill="#262628"/><path d="M91,377.1H-10.3a12.2,12.2,0,0,1-12.2-12.2h0a12.3,12.3,0,0,1,12.2-12.3H91a12.3,12.3,0,0,1,12.3,12.3h0A12.3,12.3,0,0,1,91,377.1Z" transform="translate(69 -0.3)" fill="#262628"/><path d="M440.5,156.8a12.3,12.3,0,0,1-12.3,12.3H257.9a12.3,12.3,0,0,1-12.3-12.3h0a12.3,12.3,0,0,1,12.3-12.3H428.2a12.3,12.3,0,0,1,12.3,12.3Z" transform="translate(69 -0.3)" fill="#262628"/><path d="M393.9,193.7h-114a12.3,12.3,0,0,1-12.3-12.3h0a12.3,12.3,0,0,1,12.3-12.3h114a12.3,12.3,0,0,1,12.3,12.3h0A12.3,12.3,0,0,1,393.9,193.7Z" transform="translate(69 -0.3)" fill="#262628"/><path d="M386.3,144.5h-82a12.3,12.3,0,0,1-12.2-12.3h0A12.2,12.2,0,0,1,304.3,120h82a12.3,12.3,0,0,1,12.3,12.2h0A12.3,12.3,0,0,1,386.3,144.5Z" transform="translate(69 -0.3)" fill="#262628"/></g><g clip-path="url(#clip-path-2)"><path d="M241.8,278.6l27.3-8.7a22.5,22.5,0,0,1,28.4,14.6l6.2,19.2a22.1,22.1,0,1,0,42-13.5l-2-6.1a22.6,22.6,0,0,1,14.6-28.4l13-4.2" transform="translate(69 -0.3)" fill="none" stroke="#fff" stroke-linecap="round" stroke-miterlimit="10" stroke-width="4.83"/><path d="M178.1,182.3h18.7a4.3,4.3,0,0,1,4.3,4.3v5a0,0,0,0,1,0,0H173.7a0,0,0,0,1,0,0v-5A4.3,4.3,0,0,1,178.1,182.3Z" transform="translate(20.8 66.1) rotate(-17.8)" fill="#79b4b5"/><path d="M231.1,200.6l4.4-1.4A4.4,4.4,0,0,1,241,202l10.8,33.7L240,239.5" transform="translate(69 -0.3)" fill="none" stroke="#497c74" stroke-miterlimit="10" stroke-width="4.37"/><rect x="173.8" y="187.9" width="61.5" height="61.75" rx="7" transform="translate(11.8 72.9) rotate(-17.8)" fill="#497c74"/><path d="M261.5,295.2l15.3-4.9L262.6,246a19.8,19.8,0,0,0-24.8-12.7l-19.1,6.1,4.9,15.4,19.1-6.2a3.8,3.8,0,0,1,4.6,2.3Z" transform="translate(69 -0.3)" fill="#79b4b5"/><path d="M262,266.4a6.9,6.9,0,0,0,8.6,4.4l-4.2-12.9A6.7,6.7,0,0,0,262,266.4Z" transform="translate(69 -0.3)" fill="#68989b"/><path d="M261.5,264.9a6.9,6.9,0,0,0,8.6,4.4l-4.2-13A6.9,6.9,0,0,0,261.5,264.9Z" transform="translate(69 -0.3)" fill="#415d5e"/><path d="M253.4,270l15.2-4.9a2.4,2.4,0,0,0,1.6-3,2.4,2.4,0,0,0-3-1.6l-15.3,4.9Z" transform="translate(69 -0.3)" fill="#a2e8e0"/><path d="M260,240.7a9.7,9.7,0,0,1-5.1,4,9.3,9.3,0,0,1-11.6-6,9.4,9.4,0,0,1,.3-6.4A20.1,20.1,0,0,1,260,240.7Z" transform="translate(69 -0.3)" fill="#fff"/><rect x="253.7" y="247.4" width="9.4" height="1.95" transform="matrix(-0.95, 0.31, -0.31, -0.95, 649.41, 405.48)" fill="#e08623"/><rect x="254.6" y="250.5" width="9.4" height="1.95" transform="translate(652.3 411.2) rotate(162.2)" fill="#e08623"/><rect x="255.6" y="253.5" width="9.4" height="1.95" transform="matrix(-0.95, 0.31, -0.31, -0.95, 655.14, 416.85)" fill="#e08623"/><rect x="173.5" y="202.7" width="57.4" height="18.52" rx="3.4" transform="translate(13.8 71.8) rotate(-17.8)" fill="#79b4b5"/><circle cx="202.3" cy="212" r="25.9" transform="translate(-20.4 240) rotate(-51.9)" fill="#a2e8e0"/><circle cx="202.3" cy="212" r="20.1" transform="translate(29.8 377.7) rotate(-80.9)" fill="#82868b"/><circle cx="202.3" cy="212" r="17.2" transform="matrix(0.08, -1, 1, 0.08, 44.12, 396.85)" fill="#52565a"/><path d="M212.2,198a14.5,14.5,0,0,1,2.2,4.5,17.1,17.1,0,0,1-26.3,19.2A17.2,17.2,0,1,0,212.2,198Z" transform="translate(69 -0.3)" fill="#3b3e43"/><path d="M199.1,200.3a13,13,0,0,1,2.3-1.8,12.8,12.8,0,0,0-3.3.6,13.6,13.6,0,0,0-5.4,3.3Z" transform="translate(69 -0.3)" fill="#82868b"/><path d="M190.3,205.6a14,14,0,0,0-1.2,9.7l6.4-2.1a14,14,0,0,1,1.2-9.7Z" transform="translate(69 -0.3)" fill="#82868b"/><line x1="249.9" y1="243.2" x2="306.9" y2="224.9" fill="none" stroke="#a2e8e0" stroke-linecap="round" stroke-miterlimit="10" stroke-width="5.37"/><rect x="195.4" y="237.7" width="52.9" height="67.74" transform="translate(-3.5 80.7) rotate(-17.8)" fill="#79b4b5"/><rect x="215.2" y="300" width="21.7" height="71.56" transform="translate(-23 85.1) rotate(-17.8)" fill="#497c74"/><rect x="245" y="290.4" width="21.7" height="71.57" transform="translate(-18.6 93.7) rotate(-17.8)" fill="#497c74"/><path d="M203.5,313.9l-15.3,4.9L174,274.5a19.7,19.7,0,0,1,12.7-24.8l19.1-6.1,4.9,15.3-19.1,6.2a3.5,3.5,0,0,0-2.3,4.5Z" transform="translate(69 -0.3)" fill="#79b4b5"/><rect x="203.1" y="251.4" width="34.4" height="33.29" transform="translate(-2.5 80.1) rotate(-17.8)" fill="#68989b"/><rect x="202.6" y="249.9" width="34.4" height="33.29" transform="translate(-2 79.8) rotate(-17.8)" fill="#fff"/><path d="M245.8,361.8a10.8,10.8,0,0,0-13.6-7,11,11,0,0,0-7,13.7l1.5,4.7,20.6-6.7Z" transform="translate(69 -0.3)" fill="#a2e8e0"/><rect x="226.6" y="369.8" width="21.7" height="2.6" transform="translate(-33.2 90.2) rotate(-17.8)" fill="#52565a"/><path d="M236.9,334a10.9,10.9,0,0,1-7,13.7,10.9,10.9,0,1,1,7-13.7Z" transform="translate(69 -0.3)" fill="#415d5e"/><circle cx="225.9" cy="335.3" r="10.9" transform="translate(-77.4 492.7) rotate(-79)" fill="#fff"/><line x1="284.5" y1="338.3" x2="305.3" y2="331.7" fill="none" stroke="#a2e8e0" stroke-linecap="round" stroke-miterlimit="10" stroke-width="4.83"/><rect x="202.4" y="290.6" width="53" height="6.44" transform="translate(-10 83.9) rotate(-17.8)" fill="#415d5e"/><rect x="204" y="256.8" width="13.9" height="7.7" transform="translate(-0.7 76.9) rotate(-17.8)" fill="#68989b"/><rect x="206.2" y="266.1" width="13.9" height="2.51" transform="translate(-2.6 77.8) rotate(-17.8)" fill="#52565a"/><path d="M216.3,276.5A3.6,3.6,0,0,1,214,281a3.6,3.6,0,1,1,2.3-4.5Z" transform="translate(69 -0.3)" fill="#e08623"/><path d="M227.8,272.8a4.5,4.5,0,0,1-2.9,5.7,4.5,4.5,0,0,1-2.8-8.6A4.5,4.5,0,0,1,227.8,272.8Z" transform="translate(69 -0.3)" fill="#6a6e72"/><path d="M226.2,273.3a2.8,2.8,0,0,1-1.8,3.5,2.7,2.7,0,0,1-3.5-1.8,2.6,2.6,0,0,1,1.8-3.4A2.8,2.8,0,0,1,226.2,273.3Z" transform="translate(69 -0.3)" fill="#a2e8e0"/><rect x="222.1" y="253.4" width="8.2" height="8.23" transform="translate(1 81.4) rotate(-17.8)" fill="#e08623"/><polygon points="300.4 259.9 292.6 262.4 297.9 252.1 300.4 259.9" fill="#dc6920"/><rect x="231.4" y="265.4" width="16.8" height="7.11" transform="translate(-1.8 86.1) rotate(-17.8)" fill="#415d5e"/><path d="M204.1,315.6a8.1,8.1,0,0,1-5.2,10.1,8,8,0,0,1-10.1-5.2l-3.1-9.4,15.4-4.9Z" transform="translate(69 -0.3)" fill="#a2e8e0"/><line x1="268.2" y1="309.3" x2="274.3" y2="314" fill="none" stroke="#a2e8e0" stroke-linecap="round" stroke-miterlimit="10" stroke-width="5.37"/><polygon points="324 288.6 273.5 304.9 296.6 305 305.7 302.1 324 288.6" fill="#a2e8e0"/><path d="M186.3,290.7a6.8,6.8,0,0,1-4.4,8.6l-4.1-12.9A6.7,6.7,0,0,1,186.3,290.7Z" transform="translate(69 -0.3)" fill="#68989b"/><path d="M185.8,289.2a6.8,6.8,0,0,1-4.4,8.6l-4.1-13A6.7,6.7,0,0,1,185.8,289.2Z" transform="translate(69 -0.3)" fill="#415d5e"/><path d="M195.5,288.7l-15.3,4.9a2.5,2.5,0,0,1-3.1-1.6,2.4,2.4,0,0,1,1.6-3l15.3-4.9Z" transform="translate(69 -0.3)" fill="#a2e8e0"/><path d="M228,373.5h3.1a0,0,0,0,1,0,0v1.1a2,2,0,0,1-2,2H228a0,0,0,0,1,0,0v-3.1A0,0,0,0,1,228,373.5Z" transform="translate(265.6 -63.7) rotate(27.2)" fill="#52565a"/><path d="M232.2,372.1h3.1a0,0,0,0,1,0,0v1.1a2,2,0,0,1-2,2h-1.1a0,0,0,0,1,0,0v-3.1A0,0,0,0,1,232.2,372.1Z" transform="translate(265.4 -65.7) rotate(27.2)" fill="#52565a"/><path d="M236.3,370.8h3.1a0,0,0,0,1,0,0v1.1a2,2,0,0,1-2,2h-1.1a0,0,0,0,1,0,0v-3.1A0,0,0,0,1,236.3,370.8Z" transform="translate(265.3 -67.8) rotate(27.2)" fill="#52565a"/><path d="M240.4,369.5h3.1a0,0,0,0,1,0,0v1.1a2,2,0,0,1-2,2h-1.1a0,0,0,0,1,0,0v-3.1A0,0,0,0,1,240.4,369.5Z" transform="translate(265.1 -69.8) rotate(27.2)" fill="#52565a"/><path d="M244.5,368.1h3.1a0,0,0,0,1,0,0v1.1a2,2,0,0,1-2,2h-1.1a0,0,0,0,1,0,0v-3.1A0,0,0,0,1,244.5,368.1Z" transform="translate(265 -71.8) rotate(27.2)" fill="#52565a"/><path d="M232.9,357.6a9.5,9.5,0,0,1,1.6-1.2,9.3,9.3,0,0,0-2.3.4,10.9,10.9,0,0,0-3.6,2.2Z" transform="translate(69 -0.3)" fill="#cdfff6"/><path d="M226.9,361.2a9.9,9.9,0,0,0-.8,6.6l4.4-1.4a8.9,8.9,0,0,1,.8-6.6Z" transform="translate(69 -0.3)" fill="#cdfff6"/><path d="M198.4,323.8h1.4l-1.5.6a7.7,7.7,0,0,1-3,.3Z" transform="translate(69 -0.3)" fill="#cdfff6"/><path d="M193.5,324.2a6.9,6.9,0,0,1-3.1-3.4l3-1a6.3,6.3,0,0,0,3.2,3.4Z" transform="translate(69 -0.3)" fill="#cdfff6"/><rect x="183.5" y="303.4" width="18.3" height="5.37" transform="translate(-15.5 73.4) rotate(-17.8)" fill="#68989b"/><path d="M173,268.7a9.2,9.2,0,0,0,12.4-11.3,9.1,9.1,0,0,0-4-5A19.8,19.8,0,0,0,173,268.7Z" transform="translate(69 -0.3)" fill="#fff"/><rect x="174" y="273" width="9.4" height="1.95" transform="translate(-6.3 67.6) rotate(-17.8)" fill="#e08623"/><rect x="175" y="276.1" width="9.4" height="1.95" transform="translate(-7.2 68.1) rotate(-17.8)" fill="#e08623"/><rect x="176" y="279.2" width="9.4" height="1.95" transform="translate(-8.1 68.5) rotate(-17.8)" fill="#e08623"/><path d="M275.7,352.2a10.8,10.8,0,0,0-13.6-7,11,11,0,0,0-7,13.7l1.5,4.7,20.6-6.7Z" transform="translate(69 -0.3)" fill="#a2e8e0"/><rect x="256.5" y="360.2" width="21.7" height="2.6" transform="translate(-28.8 98.9) rotate(-17.8)" fill="#52565a"/><circle cx="256.5" cy="327.7" r="10.9" transform="translate(-83.4 404.8) rotate(-62.7)" fill="#415d5e"/><path d="M245.4,329a10.9,10.9,0,1,0,7.1-13.8A10.9,10.9,0,0,0,245.4,329Z" transform="translate(69 -0.3)" fill="#fff"/><line x1="335.2" y1="322" x2="314.4" y2="328.7" fill="none" stroke="#a2e8e0" stroke-linecap="round" stroke-miterlimit="10" stroke-width="4.83"/><path d="M262.1,297a7.9,7.9,0,0,0,10.1,5.1,8.1,8.1,0,0,0,5.2-10.1l-3-9.4-15.4,5Z" transform="translate(69 -0.3)" fill="#a2e8e0"/><line x1="331.5" y1="289" x2="329.3" y2="296.3" fill="none" stroke="#a2e8e0" stroke-linecap="round" stroke-miterlimit="10" stroke-width="5.37"/><path d="M257.9,363.8H261a0,0,0,0,1,0,0v1.1a2,2,0,0,1-2,2h-1.1a0,0,0,0,1,0,0v-3.1A0,0,0,0,1,257.9,363.8Z" transform="translate(264.5 -78.4) rotate(27.2)" fill="#52565a"/><path d="M262.1,362.5h3.1a0,0,0,0,1,0,0v1.1a2,2,0,0,1-2,2h-1.1a0,0,0,0,1,0,0v-3.1A0,0,0,0,1,262.1,362.5Z" transform="translate(264.3 -80.5) rotate(27.2)" fill="#52565a"/><path d="M266.2,361.2h3.1a0,0,0,0,1,0,0v1.1a2,2,0,0,1-2,2h-1.1a0,0,0,0,1,0,0v-3.1A0,0,0,0,1,266.2,361.2Z" transform="translate(264.2 -82.5) rotate(27.2)" fill="#52565a"/><path d="M270.3,359.9h3.1a0,0,0,0,1,0,0V361a2,2,0,0,1-2,2h-1.1a0,0,0,0,1,0,0v-3.1A0,0,0,0,1,270.3,359.9Z" transform="translate(264 -84.5) rotate(27.2)" fill="#52565a"/><path d="M274.4,358.5h3.1a0,0,0,0,1,0,0v1.1a2,2,0,0,1-2,2h-1.1a0,0,0,0,1,0,0v-3.1A0,0,0,0,1,274.4,358.5Z" transform="translate(263.9 -86.6) rotate(27.2)" fill="#52565a"/><path d="M262.8,348a9.5,9.5,0,0,1,1.6-1.2,9.3,9.3,0,0,0-2.3.4,9.5,9.5,0,0,0-3.6,2.2Z" transform="translate(69 -0.3)" fill="#cdfff6"/><path d="M256.8,351.6a9.9,9.9,0,0,0-.8,6.6l4.4-1.4a8.9,8.9,0,0,1,.8-6.6Z" transform="translate(69 -0.3)" fill="#cdfff6"/><path d="M271.5,300.3l-1.1.8,1.6-.3a5.8,5.8,0,0,0,2.5-1.5Z" transform="translate(69 -0.3)" fill="#cdfff6"/><path d="M275.6,297.8a6.1,6.1,0,0,0,.6-4.6l-3,1a6.3,6.3,0,0,1-.6,4.5Z" transform="translate(69 -0.3)" fill="#cdfff6"/><rect x="256.7" y="279.9" width="18.3" height="5.37" transform="translate(-4.7 94.7) rotate(-17.8)" fill="#68989b"/><line x1="248.2" y1="250" x2="312.3" y2="229.4" fill="none" stroke="#68989b" stroke-linecap="round" stroke-miterlimit="10" stroke-width="6.44"/><line x1="258.4" y1="246.7" x2="275" y2="241.4" fill="none" stroke="#79b4b5" stroke-linecap="round" stroke-miterlimit="10" stroke-width="6.44"/><line x1="259.1" y1="240.3" x2="270.6" y2="236.6" fill="none" stroke="#cdfff6" stroke-linecap="round" stroke-miterlimit="10" stroke-width="5.37"/><text transform="translate(212.7 142.3)" font-size="90.14" fill="#fff" font-family="BritannicBold, Britannic Bold">Error</text><text transform="translate(265.8 73.1)" font-size="32.53" fill="#d8311c" font-family="BankGothicBold, BankGothic">Oops!</text><text x="69" y="-0.3"/><path d="M353.8,185.5l.3-.2.4.2,1.7,3.7,3.7,1.7.2.3a.5.5,0,0,1-.2.4l-3.7,1.7-1.7,3.7-.4.2-.3-.2-1.7-3.7-3.7-1.7c-.2-.1-.2-.2-.2-.4s0-.2.2-.3l3.7-1.7Z" transform="translate(69 -0.3)" fill="#fff"/><path d="M121.4,43.9a.5.5,0,0,1,1,0l.6,3.9a2.4,2.4,0,0,0,1.8,1.8l3.9.6a.5.5,0,0,1,.5.5.6.6,0,0,1-.5.6l-3.9.6a2.1,2.1,0,0,0-1.8,1.8l-.6,3.9a.5.5,0,0,1-1,0l-.6-3.9a2.1,2.1,0,0,0-1.8-1.8l-3.9-.6a.6.6,0,0,1-.5-.6.5.5,0,0,1,.5-.5l3.9-.6a2.4,2.4,0,0,0,1.8-1.8Z" transform="translate(69 -0.3)" fill="#fff"/><path d="M338.3,185.9l-.3.3-.3-.2-1.2-1.6-1.9-.5c-.1,0-.2-.1-.2-.3a.2.2,0,0,1,.1-.3l1.6-1.2.5-1.8a.3.3,0,0,1,.3-.3c.1-.1.3,0,.4.1l1.1,1.6,1.9.5.3.3a.5.5,0,0,1-.2.4l-1.6,1.1Z" transform="translate(69 -0.3)" fill="#c84c55"/><path d="M365.8,160.9l-.4.2a.3.3,0,0,1-.3-.3l-.7-1.8-1.8-.9-.2-.3c.1-.2.1-.3.3-.4l1.8-.7.9-1.7.4-.2.3.2.7,1.9,1.7.9c.2,0,.2.2.2.3s-.1.3-.2.3l-1.8.7Z" transform="translate(69 -0.3)" fill="#8cd1cf"/><path d="M337.5,170.1a1.9,1.9,0,1,1-3.7,0,1.8,1.8,0,0,1,1.8-1.8A1.8,1.8,0,0,1,337.5,170.1Z" transform="translate(69 -0.3)" fill="#efc22f"/><path d="M340.7,166.1a.9.9,0,0,1-1,1,.9.9,0,0,1-.9-1,.9.9,0,0,1,.9-.9A.9.9,0,0,1,340.7,166.1Z" transform="translate(69 -0.3)" fill="#efc22f"/><path d="M383.8,183.1a1,1,0,0,1-2,0,1,1,0,1,1,2,0Z" transform="translate(69 -0.3)" fill="#efc22f"/><path d="M395.6,179.6a1.2,1.2,0,0,1-1.2,1.3,1.3,1.3,0,1,1,0-2.6A1.2,1.2,0,0,1,395.6,179.6Z" transform="translate(69 -0.3)" fill="#efc22f"/><path d="M279.1,220.2a2.5,2.5,0,1,1-2.4-2.4A2.5,2.5,0,0,1,279.1,220.2Z" transform="translate(69 -0.3)" fill="#fff"/><circle cx="354.6" cy="217" r="1.6" fill="#fff"/><path d="M286.8,225.3a1.8,1.8,0,1,1-1.8-1.8A1.8,1.8,0,0,1,286.8,225.3Z" transform="translate(69 -0.3)" fill="#fff"/><path d="M145.2,376.1c.1-.2.2-.3.4-.3a.3.3,0,0,1,.3.3l1.7,3.7,3.7,1.7a.3.3,0,0,1,.3.3c0,.2-.1.3-.3.4l-3.7,1.6-1.7,3.8-.3.2-.4-.2-1.6-3.8-3.8-1.6a.5.5,0,0,1-.2-.4c0-.1.1-.3.2-.3l3.8-1.7Z" transform="translate(69 -0.3)" fill="#fff"/><path d="M89.9,320.9a.6.6,0,0,1,.6-.5.5.5,0,0,1,.5.5l.6,3.9a2.2,2.2,0,0,0,1.8,1.8l3.9.6a.5.5,0,1,1,0,1l-3.9.6a2.2,2.2,0,0,0-1.8,1.8l-.6,3.9a.5.5,0,0,1-.5.5.6.6,0,0,1-.6-.5l-.6-3.9a2.1,2.1,0,0,0-1.8-1.8l-3.9-.6a.5.5,0,0,1,0-1l3.9-.6a2.1,2.1,0,0,0,1.8-1.8Z" transform="translate(69 -0.3)" fill="#fff"/><path d="M129.8,376.5l-.3.2c-.2.1-.3,0-.4-.1L128,375l-1.9-.5a.3.3,0,0,1-.3-.3.4.4,0,0,1,.2-.4l1.6-1.1.4-1.9.3-.3a.5.5,0,0,1,.4.2l1.1,1.6,1.9.5a.3.3,0,0,1,.3.3.6.6,0,0,1-.1.4l-1.7,1.1Z" transform="translate(69 -0.3)" fill="#c84c55"/><path d="M157.2,351.5l-.3.2c-.2,0-.3-.1-.4-.3l-.7-1.8-1.7-.9a.5.5,0,0,1-.2-.4c0-.1.1-.2.2-.3l1.9-.7.9-1.7c0-.2.2-.2.3-.2s.3.1.3.2l.7,1.8,1.8.9a.5.5,0,0,1,.2.4.3.3,0,0,1-.3.3l-1.8.7Z" transform="translate(69 -0.3)" fill="#8cd1cf"/><circle cx="196.1" cy="360.5" r="1.8" fill="#efc22f"/><path d="M132.1,356.7a.9.9,0,0,1-.9,1,.9.9,0,0,1-1-1,1,1,0,0,1,1-1A1,1,0,0,1,132.1,356.7Z" transform="translate(69 -0.3)" fill="#efc22f"/><path d="M175.2,373.6a.9.9,0,0,1-1,1,.9.9,0,0,1-.9-1,.9.9,0,0,1,.9-.9A.9.9,0,0,1,175.2,373.6Z" transform="translate(69 -0.3)" fill="#efc22f"/><path d="M187.1,370.2a1.3,1.3,0,0,1-2.6,0,1.3,1.3,0,1,1,2.6,0Z" transform="translate(69 -0.3)" fill="#efc22f"/><path d="M127.1,415.7a2.5,2.5,0,0,1-4.9,0,2.5,2.5,0,1,1,4.9,0Z" transform="translate(69 -0.3)" fill="#fff"/><circle cx="202.6" cy="412.5" r="1.6" fill="#fff"/><circle cx="202" cy="420.5" r="1.8" fill="#fff"/><path d="M335.5,361.8c.2,0,.2.2.2.3s0,.3-.2.4l-3.7,1.6-1.7,3.8c0,.1-.2.2-.3.2a.5.5,0,0,1-.4-.2l-1.7-3.8-3.7-1.6a.5.5,0,0,1-.2-.4c0-.1.1-.3.2-.3l3.7-1.7,1.7-3.7c.1-.2.2-.3.4-.3a.3.3,0,0,1,.3.3l1.7,3.7Z" transform="translate(69 -0.3)" fill="#fff"/><path d="M390.7,306.5a.5.5,0,1,1,0,1l-3.9.6a2.4,2.4,0,0,0-1.8,1.8l-.6,3.9a.5.5,0,1,1-1,0l-.6-3.9a2.4,2.4,0,0,0-1.8-1.8l-3.9-.6a.5.5,0,0,1,0-1l3.9-.6a2.4,2.4,0,0,0,1.8-1.8l.6-3.9a.5.5,0,1,1,1,0l.6,3.9a2.4,2.4,0,0,0,1.8,1.8Z" transform="translate(69 -0.3)" fill="#fff"/><path d="M335.1,346.3q-.2,0-.3-.3a.8.8,0,0,1,.2-.4l1.6-1.1.5-1.9q0-.2.3-.3l.4.2,1.1,1.6,1.9.5c.1,0,.2.1.2.3s0,.3-.1.4l-1.6,1.1-.5,1.9c0,.1-.1.2-.3.2s-.3,0-.4-.1l-1.1-1.6Z" transform="translate(69 -0.3)" fill="#c84c55"/><path d="M360.1,373.7c-.1,0-.2-.2-.2-.3a.3.3,0,0,1,.3-.3l1.8-.7.9-1.8a.5.5,0,0,1,.4-.2l.3.3.7,1.8,1.7.9c.2,0,.2.2.2.3a.5.5,0,0,1-.2.4l-1.8.7-.9,1.7a.5.5,0,0,1-.4.2c-.1,0-.3-.1-.3-.2l-.7-1.9Z" transform="translate(69 -0.3)" fill="#8cd1cf"/><path d="M350.9,345.4a1.8,1.8,0,1,1,1.8-1.8A1.8,1.8,0,0,1,350.9,345.4Z" transform="translate(69 -0.3)" fill="#efc22f"/><path d="M354.9,348.7a1,1,0,0,1,0-2,1,1,0,0,1,0,2Z" transform="translate(69 -0.3)" fill="#efc22f"/><path d="M337.9,391.7a.9.9,0,0,1-.9-.9.9.9,0,0,1,.9-1,.9.9,0,0,1,1,1A.9.9,0,0,1,337.9,391.7Z" transform="translate(69 -0.3)" fill="#efc22f"/><path d="M341.4,403.6a1.3,1.3,0,0,1-1.3-1.3,1.3,1.3,0,0,1,2.6,0A1.3,1.3,0,0,1,341.4,403.6Z" transform="translate(69 -0.3)" fill="#efc22f"/><path d="M295.9,343.6a2.5,2.5,0,0,1,0-4.9,2.5,2.5,0,1,1,0,4.9Z" transform="translate(69 -0.3)" fill="#fff"/><circle cx="367.9" cy="349.9" r="1.6" fill="#fff"/><path d="M290.8,351.3a1.8,1.8,0,1,1,1.8-1.8A1.8,1.8,0,0,1,290.8,351.3Z" transform="translate(69 -0.3)" fill="#fff"/><path d="M331.9,53.1c0-.1.2-.2.3-.2l.4.2,1.6,3.8,3.8,1.6a.5.5,0,0,1,.2.4c0,.1-.1.3-.2.3l-3.8,1.7-1.6,3.7c-.1.2-.2.3-.4.3a.3.3,0,0,1-.3-.3l-1.7-3.7-3.7-1.7a.3.3,0,0,1-.3-.3c0-.2.1-.3.3-.4l3.7-1.6Z" transform="translate(69 -0.3)" fill="#fff"/><path d="M331.7,27.9c0-.2.3-.4.5-.4a.7.7,0,0,1,.6.4l.6,3.9a1.9,1.9,0,0,0,1.7,1.8l4,.6a.7.7,0,0,1,.4.6c0,.2-.2.5-.4.5l-4,.6a2,2,0,0,0-1.7,1.8l-.6,3.9a.6.6,0,0,1-.6.5.5.5,0,0,1-.5-.5l-.6-3.9a2.2,2.2,0,0,0-1.8-1.8l-3.9-.6a.5.5,0,0,1-.5-.5.6.6,0,0,1,.5-.6l3.9-.6a2.1,2.1,0,0,0,1.8-1.8Z" transform="translate(69 -0.3)" fill="#fff"/><path d="M316.4,53.5a.3.3,0,0,1-.3.3c-.1.1-.3,0-.4-.1l-1.1-1.6-1.9-.5c-.1,0-.2-.2-.2-.3s0-.3.1-.4l1.6-1.1.5-1.9q0-.1.3-.3l.4.2,1.1,1.6,1.9.5q.2,0,.3.3c0,.1-.1.3-.2.3l-1.6,1.1Z" transform="translate(69 -0.3)" fill="#c84c55"/><path d="M343.9,28.5c-.1.2-.2.2-.4.2s-.3-.1-.3-.2l-.7-1.8-1.8-.9a.5.5,0,0,1-.2-.4.3.3,0,0,1,.3-.3l1.8-.7.9-1.8a.5.5,0,0,1,.4-.2q.2,0,.3.3l.7,1.8,1.7.9c.2.1.2.2.2.4l-.2.3-1.8.7Z" transform="translate(69 -0.3)" fill="#8cd1cf"/><path d="M315.6,37.8a1.9,1.9,0,0,1-1.9,1.8,1.8,1.8,0,0,1,0-3.6A1.9,1.9,0,0,1,315.6,37.8Z" transform="translate(69 -0.3)" fill="#efc22f"/><path d="M318.8,33.8a1,1,0,0,1-1,1,1,1,0,0,1,0-2A1,1,0,0,1,318.8,33.8Z" transform="translate(69 -0.3)" fill="#efc22f"/><path d="M339.2,65.8a1,1,0,1,1-2,0,1,1,0,0,1,2,0Z" transform="translate(69 -0.3)" fill="#efc22f"/><path d="M337.8,70.8a1.2,1.2,0,0,1-1.2,1.3,1.3,1.3,0,0,1,0-2.6A1.2,1.2,0,0,1,337.8,70.8Z" transform="translate(69 -0.3)" fill="#efc22f"/><circle cx="343.5" cy="559.9" r="183.4" fill="#b3511f"/><path d="M274.5,376.7V743.6c101.3,0,183.4-82.1,183.4-183.5A183.4,183.4,0,0,0,274.5,376.7Z" transform="translate(69 -0.3)" fill="#8b3e21"/><path d="M453.9,521.8a186.4,186.4,0,0,0-15.3-43.6h-162A21.8,21.8,0,0,0,254.8,500h0a21.8,21.8,0,0,0,21.8,21.8Z" transform="translate(69 -0.3)" fill="#e0641d"/><path d="M206.2,551.8H91.3c-.1,2.7-.2,5.5-.2,8.3a186.1,186.1,0,0,0,3.4,35.3H206.2A21.9,21.9,0,0,0,228,573.6h0A21.8,21.8,0,0,0,206.2,551.8Z" transform="translate(69 -0.3)" fill="#e0641d"/><path d="M243.6,595.4H94.5A184.2,184.2,0,0,0,108.8,639H243.6a21.8,21.8,0,0,0,0-43.6Z" transform="translate(69 -0.3)" fill="#e0641d"/><path d="M245.2,671a21.8,21.8,0,1,0,0,43.6H373.4A181.5,181.5,0,0,0,420.6,671Z" transform="translate(69 -0.3)" fill="#e0641d"/><path d="M457.4,573.9H367.3a21.8,21.8,0,0,0-21.8,21.8h0a21.7,21.7,0,0,0,21.8,21.8h81.4A183.3,183.3,0,0,0,457.4,573.9Z" transform="translate(69 -0.3)" fill="#e0641d"/><path d="M257.2,409.1H170.4a184.3,184.3,0,0,0-44.5,43.6H257.2a21.8,21.8,0,1,0,0-43.6Z" transform="translate(69 -0.3)" fill="#e0641d"/><path d="M93.7,147.6l.3-.2.4.2,1.6,3.7,3.8,1.7c.1.1.2.2.2.3a.5.5,0,0,1-.2.4L96,155.4l-1.6,3.7a.5.5,0,0,1-.4.2l-.3-.2L92,155.4l-3.7-1.7c-.2-.1-.3-.2-.3-.4s.1-.2.3-.3l3.7-1.7Z" transform="translate(69 -0.3)" fill="#fff"/><path d="M93.5,122.4a.5.5,0,0,1,.5-.5.6.6,0,0,1,.6.5l.6,3.9a2.1,2.1,0,0,0,1.7,1.8l4,.6a.5.5,0,0,1,0,1l-4,.6a2.1,2.1,0,0,0-1.7,1.8l-.6,3.9a.6.6,0,0,1-.6.5.5.5,0,0,1-.5-.5l-.6-3.9a2.4,2.4,0,0,0-1.8-1.8l-3.9-.6a.5.5,0,1,1,0-1l3.9-.6a2.4,2.4,0,0,0,1.8-1.8Z" transform="translate(69 -0.3)" fill="#fff"/><path d="M78.2,148l-.3.3-.4-.2-1.1-1.6-1.9-.5c-.1,0-.2-.1-.2-.3a.2.2,0,0,1,.1-.3l1.6-1.1.5-1.9a.3.3,0,0,1,.3-.3c.1-.1.3,0,.4.1l1.1,1.6,1.9.5.3.3a.5.5,0,0,1-.2.4l-1.6,1.1Z" transform="translate(69 -0.3)" fill="#c84c55"/><path d="M105.7,123a.5.5,0,0,1-.4.2.3.3,0,0,1-.3-.3l-.7-1.8-1.8-.9-.2-.3c0-.2.1-.3.3-.4l1.8-.7.9-1.7.4-.2.3.2.7,1.9,1.7.9c.2,0,.2.2.2.3s-.1.3-.2.3l-1.8.7Z" transform="translate(69 -0.3)" fill="#8cd1cf"/><path d="M77.4,132.2a2,2,0,0,1-1.9,1.9,1.9,1.9,0,0,1-1.8-1.9,1.8,1.8,0,0,1,1.8-1.8A1.9,1.9,0,0,1,77.4,132.2Z" transform="translate(69 -0.3)" fill="#efc22f"/><path d="M80.6,128.2a.9.9,0,0,1-1,1,1,1,0,0,1-1-1,1,1,0,0,1,1-.9A.9.9,0,0,1,80.6,128.2Z" transform="translate(69 -0.3)" fill="#efc22f"/><path d="M101,160.3a1,1,0,1,1-1-1A1.1,1.1,0,0,1,101,160.3Z" transform="translate(69 -0.3)" fill="#efc22f"/><path d="M99.6,165.3a1.2,1.2,0,0,1-1.2,1.2,1.2,1.2,0,0,1-1.3-1.2,1.3,1.3,0,0,1,1.3-1.3A1.2,1.2,0,0,1,99.6,165.3Z" transform="translate(69 -0.3)" fill="#efc22f"/><path d="M441.1,215.3a.3.3,0,0,1-.3.3c-.2,0-.3-.1-.4-.3l-1.6-3.7-3.8-1.7c-.1,0-.2-.2-.2-.3a.5.5,0,0,1,.2-.4l3.8-1.6,1.6-3.8.4-.2c.1,0,.3.1.3.2l1.7,3.8,3.7,1.6c.2.1.3.2.3.4a.3.3,0,0,1-.3.3l-3.7,1.7Z" transform="translate(69 -0.3)" fill="#fff"/><path d="M441.3,240.5a.5.5,0,0,1-.5.5.6.6,0,0,1-.6-.5l-.6-3.9a1.9,1.9,0,0,0-1.7-1.7l-4-.7a.5.5,0,0,1-.4-.5c0-.2.2-.5.4-.5l4-.6a2.1,2.1,0,0,0,1.7-1.8l.6-3.9a.6.6,0,0,1,.6-.5.5.5,0,0,1,.5.5l.6,3.9a2.4,2.4,0,0,0,1.8,1.8l3.9.6a.5.5,0,0,1,.5.5.5.5,0,0,1-.5.5l-3.9.7a2.1,2.1,0,0,0-1.8,1.7Z" transform="translate(69 -0.3)" fill="#fff"/><path d="M456.6,214.9c0-.1.1-.2.3-.2s.3,0,.4.1l1.1,1.6,1.9.5c.1,0,.2.1.2.3s0,.3-.1.4l-1.6,1.1-.5,1.9-.3.3-.4-.2-1.1-1.6-1.9-.5q-.2,0-.3-.3a.8.8,0,0,1,.2-.4l1.6-1.1Z" transform="translate(69 -0.3)" fill="#c84c55"/><path d="M429.1,240c.1-.2.2-.3.4-.3l.3.3.7,1.8,1.8.9a.5.5,0,0,1,.2.4.3.3,0,0,1-.3.3l-1.8.7-.9,1.7c-.1.2-.2.3-.4.2l-.3-.2-.7-1.8-1.7-.9c-.2-.1-.2-.2-.2-.4s.1-.3.2-.3l1.8-.7Z" transform="translate(69 -0.3)" fill="#8cd1cf"/><path d="M457.4,230.7a1.9,1.9,0,0,1,1.9-1.8,1.8,1.8,0,1,1,0,3.6A1.9,1.9,0,0,1,457.4,230.7Z" transform="translate(69 -0.3)" fill="#efc22f"/><path d="M454.2,234.7a1,1,0,0,1,1-1,1,1,0,0,1,0,2A1,1,0,0,1,454.2,234.7Z" transform="translate(69 -0.3)" fill="#efc22f"/><path d="M433.8,202.6a1,1,0,0,1,2,0,1,1,0,0,1-2,0Z" transform="translate(69 -0.3)" fill="#efc22f"/><path d="M435.2,197.7a1.2,1.2,0,0,1,1.2-1.3,1.3,1.3,0,0,1,1.3,1.3,1.2,1.2,0,0,1-1.3,1.2A1.2,1.2,0,0,1,435.2,197.7Z" transform="translate(69 -0.3)" fill="#efc22f"/><path d="M23.1,344.3l-.4.2-.3-.2-1.7-3.8L17,338.9a.5.5,0,0,1-.2-.4c0-.1.1-.3.2-.3l3.7-1.7,1.7-3.7q.2-.3.3-.3c.2,0,.3.1.4.3l1.7,3.7,3.7,1.7c.1,0,.2.2.2.3a.5.5,0,0,1-.2.4l-3.7,1.6Z" transform="translate(69 -0.3)" fill="#fff"/><path d="M23.3,369.5a.7.7,0,0,1-.6.4.7.7,0,0,1-.5-.4l-.6-3.9a2.1,2.1,0,0,0-1.8-1.8l-3.9-.6a.7.7,0,0,1-.4-.6.7.7,0,0,1,.4-.5l3.9-.6a2.1,2.1,0,0,0,1.8-1.8l.6-3.9a.7.7,0,0,1,.5-.4.7.7,0,0,1,.6.4l.6,3.9a2,2,0,0,0,1.8,1.8l3.9.6a.7.7,0,0,1,.4.5.7.7,0,0,1-.4.6l-3.9.6a2,2,0,0,0-1.8,1.8Z" transform="translate(69 -0.3)" fill="#fff"/><path d="M38.5,343.9q.2-.3.3-.3h.4l1.1,1.7,1.9.4q.3.1.3.3c0,.2,0,.3-.1.4l-1.7,1.1-.4,1.9q-.1.3-.3.3c-.2,0-.3,0-.4-.2L38.5,348l-1.9-.4-.3-.3c0-.2,0-.3.2-.4l1.6-1.1Z" transform="translate(69 -0.3)" fill="#c84c55"/><path d="M11.1,368.9l.4-.2.3.2.7,1.8,1.7.9a.4.4,0,0,1,.2.4c0,.2-.1.3-.2.3l-1.8.7-.9,1.8a.5.5,0,0,1-.4.2.3.3,0,0,1-.3-.3l-.7-1.8L8.3,372c-.1-.1-.2-.2-.2-.3s.1-.3.3-.4l1.8-.7Z" transform="translate(69 -0.3)" fill="#8cd1cf"/><path d="M39.4,359.6a1.8,1.8,0,1,1,1.8,1.8A1.8,1.8,0,0,1,39.4,359.6Z" transform="translate(69 -0.3)" fill="#efc22f"/><path d="M36.2,363.6a1,1,0,0,1,.9-1,1,1,0,0,1,1,1,.9.9,0,0,1-1,1A.9.9,0,0,1,36.2,363.6Z" transform="translate(69 -0.3)" fill="#efc22f"/><path d="M15.8,331.6a.9.9,0,0,1,1-1,.9.9,0,0,1,.9,1,.9.9,0,0,1-.9.9A.9.9,0,0,1,15.8,331.6Z" transform="translate(69 -0.3)" fill="#efc22f"/><path d="M17.1,326.6a1.3,1.3,0,1,1,1.3,1.3A1.3,1.3,0,0,1,17.1,326.6Z" transform="translate(69 -0.3)" fill="#efc22f"/><path d="M463.9,436.8a.5.5,0,0,1-.4.2l-.3-.2-1.7-3.7-3.7-1.7c-.2-.1-.3-.2-.3-.4a.3.3,0,0,1,.3-.3l3.7-1.7,1.7-3.7c0-.2.2-.2.3-.2s.3,0,.4.2l1.6,3.7,3.8,1.7c.1,0,.2.2.2.3a.5.5,0,0,1-.2.4l-3.8,1.7Z" transform="translate(69 -0.3)" fill="#fff"/><path d="M464,462a.5.5,0,0,1-1,0l-.6-3.9a2.2,2.2,0,0,0-1.8-1.8l-3.9-.6c-.3-.1-.5-.3-.5-.5a.6.6,0,0,1,.5-.6l3.9-.6a2.1,2.1,0,0,0,1.8-1.8l.6-3.9a.5.5,0,0,1,1,0l.6,3.9a2.1,2.1,0,0,0,1.8,1.8l3.9.6a.6.6,0,0,1,.5.6c0,.2-.2.4-.5.5l-3.9.6a2.2,2.2,0,0,0-1.8,1.8Z" transform="translate(69 -0.3)" fill="#fff"/><path d="M479.3,436.4a.3.3,0,0,1,.3-.3c.2,0,.3,0,.4.2l1.1,1.6,1.9.4c.1.1.3.2.3.3a.5.5,0,0,1-.2.4l-1.6,1.1L481,442a.3.3,0,0,1-.3.3c-.1,0-.3,0-.3-.2l-1.1-1.6-1.9-.4q-.3-.2-.3-.3c-.1-.2,0-.3.1-.4l1.6-1.1Z" transform="translate(69 -0.3)" fill="#c84c55"/><path d="M451.9,461.4l.3-.2.4.2.7,1.9,1.7.9c.1,0,.2.2.2.3s-.1.3-.2.3l-1.9.7-.9,1.8-.3.2c-.2,0-.3-.1-.4-.3l-.7-1.8-1.7-.9c-.1,0-.2-.2-.2-.3a.5.5,0,0,1,.2-.4l1.9-.7Z" transform="translate(69 -0.3)" fill="#8cd1cf"/><path d="M480.2,452.1a1.8,1.8,0,0,1,3.6,0,1.8,1.8,0,1,1-3.6,0Z" transform="translate(69 -0.3)" fill="#efc22f"/><path d="M476.9,456.1a1,1,0,0,1,1-.9.9.9,0,0,1,1,.9.9.9,0,0,1-1,1A1,1,0,0,1,476.9,456.1Z" transform="translate(69 -0.3)" fill="#efc22f"/><path d="M456.6,424.1a.9.9,0,0,1,.9-1,.9.9,0,0,1,1,1,1,1,0,0,1-1,1A1,1,0,0,1,456.6,424.1Z" transform="translate(69 -0.3)" fill="#efc22f"/><path d="M457.9,419.1a1.2,1.2,0,0,1,1.3-1.2,1.2,1.2,0,0,1,1.2,1.2,1.2,1.2,0,0,1-1.2,1.3A1.3,1.3,0,0,1,457.9,419.1Z" transform="translate(69 -0.3)" fill="#efc22f"/><path d="M129.2,399.7,93.8,365a5.4,5.4,0,0,1-1.7-4.1,5.7,5.7,0,0,1,2.1-4l20-15.8" transform="translate(69 -0.3)" fill="none" stroke="#3b3e43" stroke-miterlimit="10" stroke-width="3.8"/><path d="M159.7,425.5l-33.5,34.3a13.7,13.7,0,0,1-19.4.2h0a13.7,13.7,0,0,1-.2-19.4l33.5-34.3a13.7,13.7,0,0,1,19.4-.2h0A13.7,13.7,0,0,1,159.7,425.5Z" transform="translate(69 -0.3)" fill="#6a6e72"/><circle cx="186.5" cy="448.9" r="9.6" fill="#52565a"/><path d="M110.7,442.4a9.4,9.4,0,0,0-2.3,9.6,9.1,9.1,0,0,1,2.6-5.4,9.6,9.6,0,0,1,13.6-.1,10.6,10.6,0,0,1,2.4,3.9,9.3,9.3,0,0,0-2.8-8.1A9.6,9.6,0,0,0,110.7,442.4Z" transform="translate(69 -0.3)" fill="#3b3e43"/><path d="M140.3,425.8a9.6,9.6,0,0,1,.1,13.6,9.5,9.5,0,0,1-13.5.2,9.6,9.6,0,0,1,13.4-13.8Z" transform="translate(69 -0.3)" fill="#52565a"/><path d="M126.7,426a9.8,9.8,0,0,0-2.3,9.6,9.6,9.6,0,0,1,2.7-5.4,9.5,9.5,0,0,1,13.5-.2,10,10,0,0,1,2.5,4,9.9,9.9,0,0,0-2.8-8.2A9.6,9.6,0,0,0,126.7,426Z" transform="translate(69 -0.3)" fill="#3b3e43"/><circle cx="149.7" cy="416.3" r="9.6" transform="translate(-200.1 558.4) rotate(-89)" fill="#52565a"/><path d="M142.8,409.6a9.4,9.4,0,0,0-2.3,9.5,10.9,10.9,0,0,1,2.6-5.4,9.6,9.6,0,0,1,13.6-.1,8.3,8.3,0,0,1,2.4,4,9.7,9.7,0,0,0-2.7-8.2A9.6,9.6,0,0,0,142.8,409.6Z" transform="translate(69 -0.3)" fill="#3b3e43"/><rect x="82.2" y="416.4" width="78.5" height="8.86" transform="translate(-195.4 213.2) rotate(-45.6)" fill="#689fd4"/><rect x="79.8" y="413.5" width="73.8" height="4.85" transform="translate(-193.3 208.4) rotate(-45.6)" fill="#5881ac"/><rect x="89" y="384.9" width="16.2" height="39.12" transform="translate(-191 190.9) rotate(-45.6)" fill="#73ccfd"/><rect x="86.8" y="425.1" width="12.2" height="9.71" transform="translate(-210.5 195.5) rotate(-45.6)" fill="#73ccfd"/><rect x="102.3" y="416.5" width="16.2" height="1.92" transform="translate(-196.3 204.3) rotate(-45.6)" fill="#689fd4"/><rect x="89.4" y="431.4" width="12.2" height="2.27" transform="translate(-211.5 198.2) rotate(-45.6)" fill="#689fd4"/><line x1="153.9" y1="425.8" x2="142.4" y2="426" fill="none" stroke="#52565a" stroke-miterlimit="10" stroke-width="3.13"/><path d="M74,423.8a2.4,2.4,0,0,1,.1,4.7,2.4,2.4,0,0,1-2.4-2.4A2.3,2.3,0,0,1,74,423.8Z" transform="translate(69 -0.3)" fill="#52565a"/><path d="M94.2,426a11.1,11.1,0,0,0-11.1-10.9l.2,22A11,11,0,0,0,94.2,426Z" transform="translate(69 -0.3)" fill="#f5db8f"/><rect x="84.2" y="377.6" width="30" height="15.97" transform="translate(-176.8 186.7) rotate(-45.6)" fill="#e08623"/><rect x="87.2" y="384.6" width="30" height="7.72" transform="translate(-178 189.7) rotate(-45.6)" fill="#dc6920"/><rect x="109.1" y="367.2" width="4.2" height="12.24" transform="translate(-164.5 191.6) rotate(-45.6)" fill="#6a6e72"/><path d="M103.5,374.5a1.4,1.4,0,1,1-2,0A1.5,1.5,0,0,1,103.5,374.5Z" transform="translate(69 -0.3)" fill="#fff"/><path d="M115.7,339.2a3.2,3.2,0,0,1,.1,4.7,3.4,3.4,0,0,1-4.8.1,3.4,3.4,0,0,1,0-4.8A3.3,3.3,0,0,1,115.7,339.2Z" transform="translate(69 -0.3)" fill="#73ccfd"/><polygon points="120.3 284.4 141 250.2 138.1 248.4 117.8 281.9 120.3 284.4" fill="#b8eafe"/><polygon points="99.3 263.4 132.8 243.1 131 240.2 96.8 260.9 99.3 263.4" fill="#b8eafe"/><polygon points="120.9 276.7 117.8 281.9 120.3 284.4 123.4 279.2 120.9 276.7" fill="#dc6920"/><polygon points="102 257.8 96.8 260.9 99.3 263.4 104.5 260.3 102 257.8" fill="#dc6920"/><circle cx="146.9" cy="233.3" r="25" fill="#73ccfd"/><path d="M95.8,216.1,60.5,251.4a25,25,0,0,0,35.3-35.3Z" transform="translate(69 -0.3)" fill="#689fd4"/><path d="M64.1,237c-1.6.9-4-.2-5.5-2.6s-1.4-5.1.2-6.1,4,.2,5.5,2.6S65.7,236,64.1,237Z" transform="translate(69 -0.3)" fill="#e08623"/><polygon points="76.5 264.5 131.7 233.4 130.1 230.5 74.1 262 76.5 264.5" fill="#b8eafe"/><path d="M75.5,248.4c-.9,1.5.2,4,2.6,5.5s5.1,1.3,6.1-.3-.2-4-2.6-5.4S76.5,246.8,75.5,248.4Z" transform="translate(69 -0.3)" fill="#dc6920"/><polygon points="119.2 307.1 150.7 251.1 147.8 249.5 116.7 304.7 119.2 307.1" fill="#b8eafe"/><polygon points="79.8 258.8 74.1 262 76.5 264.5 82.2 261.3 79.8 258.8" fill="#e08623"/><polygon points="119.9 299 116.7 304.7 119.2 307.1 122.4 301.4 119.9 299" fill="#e08623"/><line x1="129.3" y1="215.6" x2="164.6" y2="250.9" fill="none" stroke="#dc6920" stroke-linecap="round" stroke-miterlimit="10" stroke-width="5.91"/><rect x="68.9" width="500" height="500" fill="none"/><text transform="translate(0.9 61.7)" font-size="12" font-family="BritannicBold, Britannic Bold">Lorem ipsum</text></g></g></g></g></svg>